<svg xmlns="http://www.w3.org/2000/svg" version="1.1" xmlns:xlink="http://www.w3.org/1999/xlink" viewBox="0 0 200 200"><rect width="200" height="200" fill="url('#gradient')"></rect><defs><linearGradient id="gradient" gradientTransform="rotate(83 0.5 0.5)"><stop offset="0%" stop-color="#3a4594"></stop><stop offset="100%" stop-color="#6fd73f"></stop></linearGradient></defs><g><g fill="#da2142" transform="matrix(0.7170509678387436,0,0,0.7170509678387436,29.243237922519924,103.92101898836361)" stroke="#c8512e" stroke-width="0"><path d="M9.12 0L6.10-5.63L4.48-5.63L4.48 0L1.05 0L1.05-14.22L4.48-14.22L4.48-8.72L5.80-8.72L8.54-14.22L12.69-14.22L8.78-7.66L13.17 0L9.12 0ZM23.11 0L19.81 0Q19.64-0.32 19.50-0.95L19.50-0.95Q18.59 0.20 16.96 0.20L16.96 0.20Q15.47 0.20 14.42-0.71Q13.38-1.61 13.38-2.98L13.38-2.98Q13.38-4.70 14.65-5.58Q15.92-6.46 18.34-6.46L18.34-6.46L19.36-6.46L19.36-7.01Q19.36-8.47 18.10-8.47L18.10-8.47Q16.92-8.47 16.92-7.31L16.92-7.31L13.63-7.31Q13.63-8.85 14.94-9.80Q16.24-10.76 18.26-10.76Q20.28-10.76 21.46-9.78Q22.63-8.79 22.66-7.07L22.66-7.07L22.66-2.39Q22.68-0.94 23.11-0.17L23.11-0.17L23.11 0ZM17.75-2.15L17.75-2.15Q18.37-2.15 18.77-2.41Q19.18-2.68 19.36-3.01L19.36-3.01L19.36-4.70L18.40-4.70Q16.68-4.70 16.68-3.15L16.68-3.15Q16.68-2.71 16.98-2.43Q17.29-2.15 17.75-2.15ZM24.07-5.13L24.07-5.26Q24.07-7.79 25.12-9.28Q26.17-10.76 28.01-10.76L28.01-10.76Q28.63-10.76 29.25-10.51L29.25-10.51L29.25-15L32.54-15L32.54-10.52Q33.11-10.76 33.76-10.76L33.76-10.76Q35.61-10.76 36.66-9.27Q37.71-7.77 37.71-5.06L37.71-5.06Q37.71-2.62 36.65-1.21Q35.59 0.20 33.78 0.20L33.78 0.20Q33.10 0.20 32.54-0.03L32.54-0.03L32.54 4.06L29.25 4.06L29.25-0.04Q28.63 0.20 27.99 0.20L27.99 0.20Q26.19 0.20 25.13-1.21Q24.07-2.62 24.07-5.13L24.07-5.13ZM27.36-5.06L27.36-5.06Q27.36-2.38 28.78-2.35L28.78-2.35L29.03-2.35L29.25-2.37L29.25-8.19L28.84-8.22Q27.36-8.22 27.36-5.06ZM34.39-4.60L34.40-5.26Q34.40-6.66 34.04-7.44Q33.67-8.22 32.95-8.22L32.95-8.22L32.54-8.19L32.54-2.36L32.97-2.34Q34.29-2.34 34.39-4.60L34.39-4.60ZM44.26 0.20L44.26 0.20Q41.83 0.20 40.32-1.25Q38.82-2.71 38.82-5.03L38.82-5.03L38.82-5.30Q38.82-6.92 39.42-8.16Q40.02-9.40 41.17-10.08Q42.32-10.76 43.91-10.76L43.91-10.76Q46.13-10.76 47.42-9.38Q48.71-8.00 48.71-5.53L48.71-5.53L48.71-4.25L42.17-4.25Q42.34-3.36 42.94-2.85Q43.54-2.34 44.48-2.34L44.48-2.34Q46.04-2.34 46.92-3.44L46.92-3.44L48.43-1.66Q47.81-0.81 46.68-0.31Q45.56 0.20 44.26 0.20ZM43.89-8.22L43.89-8.22Q42.44-8.22 42.17-6.31L42.17-6.31L45.49-6.31L45.49-6.56Q45.51-7.35 45.09-7.79Q44.67-8.22 43.89-8.22ZM55.17-14.22L59.67-14.22L62.84-4.33L66.01-14.22L70.52-14.22L70.52 0L67.08 0L67.08-3.32L67.41-10.12L63.97 0L61.71 0L58.26-10.13L58.59-3.32L58.59 0L55.17 0L55.17-14.22ZM81.79 0L78.50 0Q78.32-0.32 78.18-0.95L78.18-0.95Q77.28 0.20 75.64 0.20L75.64 0.20Q74.15 0.20 73.11-0.71Q72.06-1.61 72.06-2.98L72.06-2.98Q72.06-4.70 73.33-5.58Q74.60-6.46 77.02-6.46L77.02-6.46L78.04-6.46L78.04-7.01Q78.04-8.47 76.78-8.47L76.78-8.47Q75.61-8.47 75.61-7.31L75.61-7.31L72.31-7.31Q72.31-8.85 73.62-9.80Q74.92-10.76 76.94-10.76Q78.96-10.76 80.14-9.78Q81.31-8.79 81.34-7.07L81.34-7.07L81.34-2.39Q81.36-0.94 81.79-0.17L81.79-0.17L81.79 0ZM76.44-2.15L76.44-2.15Q77.05-2.15 77.46-2.41Q77.86-2.68 78.04-3.01L78.04-3.01L78.04-4.70L77.08-4.70Q75.36-4.70 75.36-3.15L75.36-3.15Q75.36-2.71 75.66-2.43Q75.97-2.15 76.44-2.15ZM92.97-5.36L92.97-5.21Q92.97-2.74 91.86-1.27Q90.75 0.20 88.87 0.20L88.87 0.20Q87.41 0.20 86.47-0.87L86.47-0.87L86.47 4.06L83.18 4.06L83.18-10.57L86.26-10.57L86.36-9.59Q87.30-10.76 88.85-10.76L88.85-10.76Q90.80-10.76 91.88-9.32Q92.97-7.88 92.97-5.36L92.97-5.36ZM89.68-5.06L89.68-5.41Q89.68-8.22 88.04-8.22L88.04-8.22Q86.87-8.22 86.47-7.38L86.47-7.38L86.47-3.22Q86.90-2.34 88.06-2.34L88.06-2.34Q89.63-2.34 89.68-5.06L89.68-5.06ZM101.82-10.57L101.82-8.03L97.66-8.03L97.66 0L94.36 0L94.36-10.57L101.82-10.57ZM106.04-4.43L108.94-10.57L112.24-10.57L112.24 0L108.94 0L108.94-6.15L106.04 0L102.72 0L102.72-10.57L106.04-10.57L106.04-4.43ZM115.10-10.57L123.44-10.57L123.44 0L120.15 0L120.15-8.03L118.17-8.03L118.00-4.79Q117.81-2.39 116.91-1.20Q116.02-0.01 114.25 0L114.25 0L113.21 0L113.17-2.52L113.52-2.56Q114.17-2.64 114.49-3.43Q114.80-4.23 114.89-5.84L114.89-5.84L115.10-10.57ZM134.47 0L131.18 0Q131.01-0.32 130.87-0.95L130.87-0.95Q129.96 0.20 128.33 0.20L128.33 0.20Q126.84 0.20 125.79-0.71Q124.75-1.61 124.75-2.98L124.75-2.98Q124.75-4.70 126.02-5.58Q127.29-6.46 129.71-6.46L129.71-6.46L130.72-6.46L130.72-7.01Q130.72-8.47 129.46-8.47L129.46-8.47Q128.29-8.47 128.29-7.31L128.29-7.31L125-7.31Q125-8.85 126.30-9.80Q127.61-10.76 129.63-10.76Q131.65-10.76 132.82-9.78Q133.99-8.79 134.02-7.07L134.02-7.07L134.02-2.39Q134.04-0.94 134.47-0.17L134.47-0.17L134.47 0ZM129.12-2.15L129.12-2.15Q129.74-2.15 130.14-2.41Q130.55-2.68 130.72-3.01L130.72-3.01L130.72-4.70L129.77-4.70Q128.05-4.70 128.05-3.15L128.05-3.15Q128.05-2.71 128.35-2.43Q128.65-2.15 129.12-2.15ZM145.25-10.57L145.25 0L141.95 0L141.95-3.92L139.07-3.92L139.07 0L135.78 0L135.78-10.57L139.07-10.57L139.07-6.45L141.95-6.45L141.95-10.57L145.25-10.57ZM160.28-4.81L163.69-4.81Q163.62-3.33 162.89-2.19Q162.16-1.05 160.83-0.43Q159.51 0.20 157.81 0.20L157.81 0.20Q155.01 0.20 153.40-1.63Q151.79-3.46 151.79-6.79L151.79-6.79L151.79-7.49Q151.79-9.58 152.51-11.15Q153.24-12.71 154.61-13.57Q155.98-14.42 157.77-14.42L157.77-14.42Q160.36-14.42 161.93-13.06Q163.51-11.70 163.72-9.31L163.72-9.31L160.30-9.31Q160.26-10.61 159.65-11.17Q159.03-11.74 157.77-11.74L157.77-11.74Q156.49-11.74 155.90-10.78Q155.30-9.82 155.27-7.72L155.27-7.72L155.27-6.72Q155.27-4.44 155.84-3.47Q156.42-2.49 157.81-2.49L157.81-2.49Q158.99-2.49 159.62-3.05Q160.24-3.60 160.28-4.81L160.28-4.81ZM168.41-4.43L171.31-10.57L174.61-10.57L174.61 0L171.31 0L171.31-6.15L168.41 0L165.10 0L165.10-10.57L168.41-10.57L168.41-4.43ZM185.63-10.57L185.63-8.05L182.29-8.05L182.29 0L178.98 0L178.98-8.05L175.70-8.05L175.70-10.57L185.63-10.57ZM190.10-4.43L193.00-10.57L196.30-10.57L196.30 0L193.00 0L193.00-6.15L190.10 0L186.79 0L186.79-10.57L190.10-10.57L190.10-4.43Z"></path></g></g></svg>